<svg width="64" height="64" viewBox="0 0 64 64" fill="none" xmlns="http://www.w3.org/2000/svg">
<path d="M25.7946 4.59695L30.4117 3.94804C37.1118 3.00641 41.2773 3.45211 45.0944 4.85186C48.9116 6.25162 52.0895 8.64632 54.4871 11.9298C56.8848 15.2132 58.4614 19.0945 59.403 25.7946L60.052 30.4117C60.9936 37.1118 60.5479 41.2773 59.1481 45.0944C57.7484 48.9116 55.3537 52.0895 52.0702 54.4871C48.7868 56.8848 44.9055 58.4614 38.2054 59.4031L33.5882 60.052C26.8882 60.9936 22.7227 60.5479 18.9055 59.1481C15.0884 57.7484 11.9105 55.3537 9.51285 52.0702C7.11517 48.7868 5.53857 44.9055 4.59694 38.2054L3.94804 33.5883C3.00641 26.8882 3.4521 22.7227 4.85185 18.9056C6.25161 15.0884 8.64632 11.9105 11.9298 9.51285C15.2132 7.11517 19.0945 5.53858 25.7946 4.59695Z" fill="url(#paint0_linear)"/>
<path d="M25.7946 4.59695L30.4117 3.94804C37.1118 3.00641 41.2773 3.45211 45.0944 4.85186C48.9116 6.25162 52.0895 8.64632 54.4871 11.9298C56.8848 15.2132 58.4614 19.0945 59.403 25.7946L60.052 30.4117C60.9936 37.1118 60.5479 41.2773 59.1481 45.0944C57.7484 48.9116 55.3537 52.0895 52.0702 54.4871C48.7868 56.8848 44.9055 58.4614 38.2054 59.4031L33.5882 60.052C26.8882 60.9936 22.7227 60.5479 18.9055 59.1481C15.0884 57.7484 11.9105 55.3537 9.51285 52.0702C7.11517 48.7868 5.53857 44.9055 4.59694 38.2054L3.94804 33.5883C3.00641 26.8882 3.4521 22.7227 4.85185 18.9056C6.25161 15.0884 8.64632 11.9105 11.9298 9.51285C15.2132 7.11517 19.0945 5.53858 25.7946 4.59695ZM31.1076 8.89938L26.4904 9.54829C20.9033 10.3335 17.6588 11.5205 14.8784 13.5508C12.393 15.3658 10.6057 17.7376 9.54618 20.627C8.39792 23.7583 8.13049 27.0901 8.82878 32.3748L8.89938 32.8924L9.54828 37.5096C10.3335 43.0967 11.5205 46.3412 13.5508 49.1216C15.3658 51.607 17.7375 53.3943 20.627 54.4538C23.7583 55.6021 27.0901 55.8695 32.3748 55.1712L32.8924 55.1006L37.5096 54.4517C43.0967 53.6665 46.3412 52.4795 49.1216 50.4492C51.607 48.6342 53.3942 46.2624 54.4538 43.373C55.6021 40.2417 55.8695 36.9099 55.1712 31.6252L55.1006 31.1076L54.4517 26.4904C53.6665 20.9033 52.4795 17.6588 50.4492 14.8784C48.6342 12.393 46.2624 10.6057 43.373 9.54619C40.2417 8.39793 36.9099 8.1305 31.6252 8.82879L31.1076 8.89938Z" fill="white" fill-opacity="0.48"/>
<path d="M24.3959 41.0207L23.3376 33.4905L29.4369 32.6333L28.944 29.1261L22.8447 29.9833L22.2793 25.9603L29.8785 24.8923L29.3855 21.3851L18.3868 22.9309L20.9963 41.4984L24.3959 41.0207ZM39.989 45.1406L44.7862 23.9543L41.3866 24.4321L39.1921 34.3917L34.3124 25.4263L30.7878 25.9216L38.1798 38.9783L36.8394 45.5833L39.989 45.1406Z" fill="white"/>
<defs>
<linearGradient id="paint0_linear" x1="28.1031" y1="4.2725" x2="35.8759" y2="59.5782" gradientUnits="userSpaceOnUse">
<stop stop-color="#432EF5"/>
<stop offset="1" stop-color="#14BE8D"/>
</linearGradient>
</defs>
</svg>
