<svg width="48" height="48" viewBox="0 0 48 48" fill="none" xmlns="http://www.w3.org/2000/svg">
<path d="M8.86133 2.07298L45.927 7.22493L40.6387 44.427L3.57299 39.2751L8.86133 2.07298Z" fill="#EEEEEE"/>
<path d="M43.6252 9.02654L10.5266 4.37483L5.87484 37.4735L38.9735 42.1252L43.6252 9.02654Z" fill="url(#paint0_linear)" stroke="black" stroke-width="1.08696"/>
<path opacity="0.24" d="M18.139 5.85465L17.3419 5.74286L12.7935 38.0359L13.5906 38.1477L18.139 5.85465Z" fill="white"/>
<path opacity="0.24" d="M27.4228 7.15941L26.6257 7.04762L22.0773 39.3406L22.8744 39.4524L27.4228 7.15941Z" fill="white"/>
<path opacity="0.24" d="M36.7066 8.46414L35.9095 8.35236L31.361 40.6454L32.1581 40.7572L36.7066 8.46414Z" fill="white"/>
<path opacity="0.24" d="M42.3706 15.0142L10.081 10.4862L9.96584 11.3037L42.2555 15.8317L42.3706 15.0142Z" fill="white"/>
<path opacity="0.24" d="M41.0659 24.298L8.77625 19.77L8.66109 20.5875L40.9507 25.1155L41.0659 24.298Z" fill="white"/>
<path opacity="0.24" d="M39.7612 33.5817L7.4715 29.0537L7.35634 29.8713L39.646 34.3993L39.7612 33.5817Z" fill="white"/>
<path d="M19.6422 11.8302L23.9276 12.4324C25.0071 12.5842 25.3828 12.7516 25.7478 13.0181C26.1128 13.2847 26.379 13.6379 26.5347 14.0623C26.6903 14.4866 26.7476 14.8939 26.5959 15.9735L25.9937 20.2588C25.8419 21.3384 25.6745 21.714 25.408 22.079C25.1414 22.4441 24.7882 22.7103 24.3638 22.8659C23.9395 23.0215 23.5322 23.0789 22.4526 22.9271L18.1673 22.3249C17.0877 22.1731 16.7121 22.0057 16.3471 21.7392C15.9821 21.4726 15.7158 21.1194 15.5602 20.695C15.4046 20.2707 15.3472 19.8634 15.499 18.7839L16.1012 14.4985C16.253 13.419 16.4204 13.0433 16.6869 12.6783C16.9535 12.3133 17.3067 12.0471 17.7311 11.8914C18.1554 11.7358 18.5627 11.6785 19.6422 11.8302Z" fill="url(#paint1_linear)"/>
<path d="M29.417 22.2594C32.315 22.6667 34.3342 25.3462 33.9269 28.2442C33.5196 31.1423 30.8401 33.1614 27.9421 32.7541C25.044 32.3468 23.0249 29.6673 23.4322 26.7693C23.8395 23.8713 26.519 21.8521 29.417 22.2594Z" fill="url(#paint2_linear)"/>
<path d="M21.75 36.75C21.75 31.3652 17.3848 27 12 27C6.61522 27 2.25 31.3652 2.25 36.75C2.25 42.1348 6.61522 46.5 12 46.5C17.3848 46.5 21.75 42.1348 21.75 36.75Z" fill="url(#paint3_linear)"/>
<path d="M12 27C17.3848 27 21.75 31.3652 21.75 36.75C21.75 42.1348 17.3848 46.5 12 46.5C6.61522 46.5 2.25 42.1348 2.25 36.75C2.25 31.3652 6.61522 27 12 27ZM12 28.5C7.44365 28.5 3.75 32.1937 3.75 36.75C3.75 41.3063 7.44365 45 12 45C16.5563 45 20.25 41.3063 20.25 36.75C20.25 32.1937 16.5563 28.5 12 28.5Z" fill="white" fill-opacity="0.32"/>
<path fill-rule="evenodd" clip-rule="evenodd" d="M15 33V34.5H11.25V36H14.25V37.5H11.25V40.5H9.75V33H15Z" fill="white"/>
<defs>
<linearGradient id="paint0_linear" x1="43.6252" y1="9.02654" x2="5.87483" y2="37.4735" gradientUnits="userSpaceOnUse">
<stop stop-color="#4B4D5A"/>
<stop offset="1" stop-color="#191A1F"/>
</linearGradient>
<linearGradient id="paint1_linear" x1="21.7849" y1="12.1313" x2="20.31" y2="22.626" gradientUnits="userSpaceOnUse">
<stop stop-color="#74EFB7"/>
<stop offset="1" stop-color="#40DB81"/>
</linearGradient>
<linearGradient id="paint2_linear" x1="29.417" y1="22.2594" x2="27.9421" y2="32.7541" gradientUnits="userSpaceOnUse">
<stop stop-color="#88DDE4"/>
<stop offset="1" stop-color="#50B8C5"/>
</linearGradient>
<linearGradient id="paint3_linear" x1="12" y1="27" x2="12" y2="46.5" gradientUnits="userSpaceOnUse">
<stop stop-color="#9C93F1"/>
<stop offset="1" stop-color="#1A20FF"/>
</linearGradient>
</defs>
</svg>
