<svg width="160" height="160" viewBox="0 0 160 160" fill="none" xmlns="http://www.w3.org/2000/svg">
	<path id="favicon-bg" fill="white" d="M140 0H20C8.9543 0 0 8.9543 0 20V140C0 151.046 8.9543 160 20 160H140C151.046 160 160 151.046 160 140V20C160 8.9543 151.046 0 140 0Z"/>
	<path fill="#F6A044" fill-rule="evenodd" clip-rule="evenodd" d="M134 26C134 32.24 131.47 37.89 127.38 41.98C123.29 46.07 117.64 48.6 111.4 48.6H48.6V26H134Z"/>
	<path id="favicon-corner" fill="#4C3A38" fill-rule="evenodd" clip-rule="evenodd" d="M48.6 26V48.6H26C26 36.12 36.12 26 48.6 26Z"/>
	<path id="favicon-left" fill="#4C5ED5" fill-rule="evenodd" clip-rule="evenodd" d="M48.6 48.6V111.4C48.6 123.88 38.48 134 26 134V48.6H48.6Z"/>
	<path id="favicon-star" fill="#4C5ED5" fill-rule="evenodd" clip-rule="evenodd" d="M80.34 93.04L71.52 97.68C70.55 98.19 69.36 97.82 68.85 96.85C68.65 96.46 68.58 96.02 68.65 95.6L70.33 85.78C70.44 85.14 70.23 84.48 69.76 84.03L62.63 77.08C61.85 76.32 61.83 75.07 62.59 74.28C62.89 73.97 63.29 73.77 63.72 73.7L73.58 72.27C74.22 72.18 74.78 71.77 75.07 71.19L79.48 62.26C79.96 61.28 81.15 60.88 82.13 61.36C82.52 61.55 82.84 61.87 83.03 62.26L87.44 71.19C87.73 71.77 88.29 72.18 88.93 72.27L98.79 73.7C99.87 73.86 100.62 74.86 100.46 75.94C100.4 76.37 100.19 76.77 99.88 77.07L92.75 84.02C92.28 84.47 92.07 85.13 92.18 85.77L93.86 95.59C94.04 96.67 93.32 97.69 92.24 97.87C91.81 97.94 91.37 97.87 90.99 97.67L82.17 93.03C81.6 92.74 80.91 92.74 80.34 93.04Z"/>
	<style>
		@media (prefers-color-scheme: dark) {
			#favicon-bg {
				fill: #1e262f;
			}
			#favicon-corner {
				fill: #FFCAFF;
			}
			#favicon-left {
				fill: #6E8BFF;
			}
			#favicon-star {
				fill: #6E8BFF;
			}
		}
  </style>
</svg>
