<svg width="272" height="71" viewBox="0 0 272 71" fill="none" xmlns="http://www.w3.org/2000/svg">
	<path fill-rule="evenodd" clip-rule="evenodd" d="M11.5354 12.8599L37.4579 9.2169C41.6306 8.63437 43.204 8.85173 44.847 9.45165C46.49 10.0516 47.8548 11.0862 48.8805 12.4947C49.915 13.9032 50.5583 15.3551 51.1407 19.5285L54.7831 45.4552C55.3655 49.6285 55.1482 51.2022 54.5484 52.8454C53.9486 54.4886 52.9141 55.8537 51.5058 56.8796C50.0976 57.9142 48.6458 58.5576 44.4732 59.1401L18.5506 62.7831C14.378 63.3656 12.8046 63.1483 11.1616 62.5484C9.51861 61.9484 8.1538 60.9138 7.12803 59.5053C6.09356 58.0968 5.45028 56.6449 4.86785 52.4715L1.21678 26.5448C0.634352 22.3715 0.851677 20.7978 1.45149 19.1546C2.05131 17.5114 3.08578 16.1463 4.49405 15.1204C5.91101 14.0945 7.36274 13.4424 11.5354 12.8599Z" fill="#2E3A47" />
	<path fill-rule="evenodd" clip-rule="evenodd" d="M12.0918 14.3727L37.3363 10.8254C40.8135 10.3385 42.1261 10.5211 43.4909 11.0253C44.8557 11.5296 45.9945 12.3817 46.8551 13.5641C47.7157 14.7379 48.2547 15.9464 48.7415 19.4328L51.8971 41.8992C52.4795 46.0725 52.2622 47.6462 51.6624 49.2894C51.0625 50.9327 50.0281 52.2977 48.6198 53.3236C47.2115 54.3582 45.7598 55.0016 41.5872 55.5842L20.3415 58.5663C16.1688 59.1489 14.5954 58.9315 12.9524 58.3316C11.3094 57.7317 9.94461 56.697 8.91884 55.2885C7.88437 53.8801 7.24109 52.4281 6.65866 48.2548L3.50309 25.7797C3.01629 22.302 3.19884 20.9891 3.70303 19.6241C4.20723 18.2591 5.05914 17.1201 6.24139 16.2594C7.40626 15.3986 8.61458 14.8596 12.0918 14.3727Z" fill="white" />
	<path fill-rule="evenodd" clip-rule="evenodd" d="M35.276 25.4407L18.116 27.849L17.238 21.6064L40.6396 18.3199C41.1264 21.7629 38.7272 24.9538 35.276 25.4407Z" fill="#F6A044" />
	<path fill-rule="evenodd" clip-rule="evenodd" d="M18.1161 27.849L11.8745 28.7271C11.3877 25.2841 13.787 22.0933 17.2381 21.6064L18.1161 27.849Z" fill="#493B39" />
	<path fill-rule="evenodd" clip-rule="evenodd" d="M15.0562 51.3587L11.8745 28.7271L18.1161 27.849L20.4197 44.2379C20.8979 47.6809 18.4986 50.8718 15.0562 51.3587Z" fill="#4C5ED5" />
	<path fill-rule="evenodd" clip-rule="evenodd" d="M28.2087 39.2909L25.9572 40.9167C25.7138 41.0906 25.366 41.0384 25.1835 40.795C25.1139 40.6994 25.0792 40.5776 25.0792 40.4559L25.1661 37.6824C25.1748 37.4998 25.0879 37.3259 24.9401 37.2216L22.6973 35.5783C22.4539 35.3958 22.4017 35.0567 22.5756 34.8045C22.6451 34.7089 22.7494 34.6393 22.8625 34.6046L25.5312 33.8221C25.7051 33.7699 25.8442 33.6395 25.8963 33.4656L26.7656 30.8312C26.8612 30.5443 27.1742 30.3878 27.4611 30.4834C27.5741 30.5182 27.6784 30.5965 27.7479 30.7008L29.3127 32.9961C29.417 33.1439 29.5821 33.2395 29.7647 33.2395L32.5465 33.2482C32.8507 33.2482 33.0941 33.5004 33.0941 33.8047C33.0941 33.9264 33.0507 34.0394 32.9811 34.1438L31.2773 36.3435C31.1643 36.4913 31.1295 36.6738 31.1904 36.8477L32.0336 39.4908C32.1292 39.7777 31.964 40.0907 31.6772 40.1864C31.5642 40.2212 31.4338 40.2212 31.3207 40.1777L28.7042 39.2387C28.5477 39.1604 28.3564 39.1865 28.2087 39.2909Z" fill="#4C5ED5" />
	<path d="M65.64 55H72.712V39.816H85.4V32.744H72.712V24.632H88.52V17.56H65.64V55ZM99.9986 55.78C102.165 55.78 103.985 55.4507 105.459 54.792C106.949 54.116 108.319 53.0413 109.567 51.568V55H115.755V37.84C115.755 36.5573 115.703 35.396 115.599 34.356C115.495 33.316 115.165 32.276 114.611 31.236C113.623 29.364 112.167 28.0467 110.243 27.284C108.319 26.5213 106.117 26.14 103.639 26.14C100.259 26.14 97.5893 26.868 95.6306 28.324C93.6719 29.78 92.3373 31.6693 91.6266 33.992L98.0226 36.02C98.4733 34.7373 99.2619 33.8447 100.389 33.342C101.515 32.8393 102.599 32.588 103.639 32.588C105.303 32.588 106.542 32.9 107.357 33.524C108.171 34.1307 108.648 35.0927 108.787 36.41C106.152 36.7913 103.829 37.164 101.819 37.528C99.8079 37.8747 98.1266 38.2907 96.7746 38.776C94.5213 39.608 92.9353 40.7433 92.0166 42.182C91.0979 43.6033 90.6386 45.2933 90.6386 47.252C90.6386 48.812 90.9939 50.242 91.7046 51.542C92.4326 52.8247 93.4899 53.856 94.8766 54.636C96.2806 55.3987 97.9879 55.78 99.9986 55.78ZM101.507 50.216C100.293 50.216 99.3313 49.9473 98.6206 49.41C97.9099 48.8553 97.5546 48.1013 97.5546 47.148C97.5546 46.4373 97.7799 45.8307 98.2306 45.328C98.6813 44.808 99.4266 44.34 100.467 43.924C101.264 43.6293 102.243 43.3607 103.405 43.118C104.583 42.858 106.36 42.5287 108.735 42.13C108.717 42.806 108.665 43.5513 108.579 44.366C108.492 45.1633 108.301 45.8653 108.007 46.472C107.816 46.8707 107.452 47.3647 106.915 47.954C106.395 48.5433 105.684 49.072 104.783 49.54C103.899 49.9907 102.807 50.216 101.507 50.216ZM129.091 55H136.163L146.355 26.92H139.283L132.627 46.368L125.971 26.92H118.899L129.091 55ZM154.388 67.48H160.94L176.8 26.92H169.728L162.396 46.03L155.012 26.92H147.68L159.016 54.766L154.388 67.48ZM191.817 55.78C195.075 55.78 197.814 54.974 200.033 53.362C202.251 51.75 203.759 49.4533 204.557 46.472L197.329 44.964C196.913 46.316 196.289 47.356 195.457 48.084C194.625 48.812 193.411 49.176 191.817 49.176C189.685 49.176 188.073 48.422 186.981 46.914C185.906 45.3887 185.369 43.404 185.369 40.96C185.369 38.62 185.88 36.67 186.903 35.11C187.943 33.5327 189.581 32.744 191.817 32.744C193.117 32.744 194.278 33.1513 195.301 33.966C196.341 34.7807 197.069 35.916 197.485 37.372L204.557 35.5C203.933 32.6053 202.494 30.326 200.241 28.662C198.005 26.9807 195.231 26.14 191.921 26.14C189.061 26.14 186.582 26.7813 184.485 28.064C182.387 29.3467 180.758 31.106 179.597 33.342C178.453 35.578 177.881 38.1173 177.881 40.96C177.881 43.768 178.435 46.29 179.545 48.526C180.654 50.762 182.249 52.53 184.329 53.83C186.409 55.13 188.905 55.78 191.817 55.78ZM221.631 55.78C224.439 55.78 226.909 55.156 229.041 53.908C231.191 52.6427 232.863 50.9007 234.059 48.682C235.273 46.446 235.879 43.872 235.879 40.96C235.879 38.0653 235.281 35.5087 234.085 33.29C232.889 31.054 231.217 29.3033 229.067 28.038C226.935 26.7727 224.457 26.14 221.631 26.14C218.858 26.14 216.405 26.764 214.273 28.012C212.141 29.26 210.469 31.002 209.255 33.238C208.042 35.4567 207.435 38.0307 207.435 40.96C207.435 43.8547 208.025 46.42 209.203 48.656C210.399 50.8747 212.063 52.6167 214.195 53.882C216.327 55.1473 218.806 55.78 221.631 55.78ZM221.631 49.176C219.43 49.176 217.757 48.4393 216.613 46.966C215.487 45.4753 214.923 43.4733 214.923 40.96C214.923 38.516 215.461 36.54 216.535 35.032C217.627 33.5067 219.326 32.744 221.631 32.744C223.867 32.744 225.549 33.4893 226.675 34.98C227.819 36.4707 228.391 38.464 228.391 40.96C228.391 43.3693 227.828 45.3453 226.701 46.888C225.592 48.4133 223.902 49.176 221.631 49.176ZM241.545 55H248.721V40.752C248.721 39.0013 248.912 37.5973 249.293 36.54C249.692 35.4827 250.194 34.6853 250.801 34.148C251.408 33.5933 252.058 33.2207 252.751 33.03C253.444 32.8393 254.094 32.744 254.701 32.744C256.209 32.744 257.37 33.082 258.185 33.758C259.017 34.434 259.615 35.2747 259.979 36.28C260.343 37.2853 260.56 38.2907 260.629 39.296C260.698 40.284 260.733 41.0987 260.733 41.74V55H267.909V39.244C267.909 38.776 267.874 38.0307 267.805 37.008C267.736 35.9853 267.536 34.8587 267.207 33.628C266.878 32.38 266.323 31.184 265.543 30.04C264.78 28.896 263.706 27.9513 262.319 27.206C260.932 26.4607 259.138 26.088 256.937 26.088C254.909 26.088 253.141 26.426 251.633 27.102C250.125 27.778 248.86 28.6793 247.837 29.806V26.92H241.545V55Z" fill="black" />
</svg>